<?xml version="1.0" encoding="UTF-8"?>
<svg version="1.1" xmlns="http://www.w3.org/2000/svg" width="400" height="116">
<path d="M0 0 C36.3 0 72.6 0 110 0 C110 36.3 110 72.6 110 110 C73.7 110 37.4 110 0 110 C0 73.7 0 37.4 0 0 Z " fill="#FEFBFA" transform="translate(0,0)"/>
<path d="M0 0 C7.77372957 -0.10197178 15.54728468 -0.17170477 23.3215332 -0.21972656 C25.96254929 -0.23975996 28.60352149 -0.26699451 31.24438477 -0.30175781 C35.05496091 -0.350639 38.86494721 -0.37305267 42.67578125 -0.390625 C43.84393875 -0.41127014 45.01209625 -0.43191528 46.21565247 -0.45318604 C56.02213599 -0.45583059 65.29420382 1.57850318 73 8 C78.91513963 15.02725035 79.58995497 20.91932049 79 30 C77.82359826 37.56258259 72.78629795 41.43889302 67 46 C68.17755859 46.51046875 68.17755859 46.51046875 69.37890625 47.03125 C77.803766 50.91805646 83.92986602 55.08673399 87.875 63.6875 C90.92285176 72.66173019 90.39018999 80.2030415 87 89 C82.2025479 97.73821633 75.26766163 103.52629267 66 107 C52.18574942 110.83807024 38.21292109 110.34832084 24 110.1875 C21.66407118 110.17241798 19.32813288 110.15873584 16.9921875 110.14648438 C11.32791462 110.11377628 5.66400296 110.06385905 0 110 C0 109.34 0 108.68 0 108 C0.78375 107.38125 1.5675 106.7625 2.375 106.125 C6.08858986 103.11876059 6.84193147 100.96128523 7.61450195 96.26293945 C8.27469692 89.12817064 8.16450166 81.95178656 8.16796875 74.79296875 C8.17118951 73.22032136 8.17455417 71.64767426 8.17805481 70.07502747 C8.18401622 66.78951321 8.18589779 63.50402514 8.18530273 60.21850586 C8.18520126 56.03965696 8.19885189 51.86097851 8.21607494 47.68216991 C8.22727505 44.43650056 8.2292195 41.19087139 8.22869301 37.94518471 C8.22986115 36.40604376 8.23421612 34.86690135 8.24202538 33.32777977 C9.02643973 17.05479256 9.02643973 17.05479256 2.875 2.75 C1.92625 1.8425 0.9775 0.935 0 0 Z M27 11 C27 21.89 27 32.78 27 44 C43.21788304 44.78082414 43.21788304 44.78082414 57 38 C59.83993943 33.07743833 60.9351356 28.57780884 60 23 C57.8511114 17.23707147 54.93024787 14.44376825 49.34765625 11.8671875 C42.04235451 9.97479895 34.47994469 10.73662167 27 11 Z M27 55 C27 69.19 27 83.38 27 98 C46.7272125 98.91921402 46.7272125 98.91921402 64 91 C69.32418932 85.47215316 70.31574744 81.23005049 70.20703125 73.71875 C69.79950658 68.36710528 67.57479256 65.33646618 63.75 61.8125 C52.79300122 52.98217609 41.11346118 55 27 55 Z " fill="#006785" transform="translate(139,0)"/>
<path d="M0 0 C21.90608559 -2.18436751 21.90608559 -2.18436751 27.97119141 1.05175781 C31.15167703 4.03046036 32.8972258 7.89180833 34.78857422 11.76220703 C37.12086768 16.07051052 40.25534187 19.82549348 43.25 23.6875 C44.54847541 25.40666577 45.84403469 27.12803784 47.13671875 28.8515625 C47.78044434 29.70782227 48.42416992 30.56408203 49.08740234 31.44628906 C53.84395804 37.79726845 58.53287729 44.19849697 63.23095703 50.59277344 C66.3177563 54.79313789 69.40882045 58.99035871 72.5 63.1875 C73.06340088 63.95328369 73.62680176 64.71906738 74.20727539 65.50805664 C75.01733032 66.60815063 75.01733032 66.60815063 75.84375 67.73046875 C76.30974609 68.36364014 76.77574219 68.99681152 77.25585938 69.64916992 C79.82340331 73.1098195 82.41231965 76.55439307 85 80 C85.04648167 71.66323253 85.08194926 63.32651985 85.10362434 54.98965454 C85.1140309 51.11789347 85.12813247 47.24622152 85.15087891 43.37451172 C85.17271949 39.63328178 85.18459212 35.89213719 85.18975449 32.15084839 C85.19343021 30.72841042 85.20060767 29.30597676 85.21146011 27.88357544 C85.77992949 15.12504061 85.77992949 15.12504061 80.4375 4.125 C79.633125 3.42375 78.82875 2.7225 78 2 C77.505 1.01 77.505 1.01 77 0 C86.9 0 96.8 0 107 0 C107 0.66 107 1.32 107 2 C106.21625 2.598125 105.4325 3.19625 104.625 3.8125 C101.61854798 6.31787669 101.06178855 7.27673596 100 11 C99.69625739 14.40166924 99.68880296 17.79267795 99.68115234 21.20629883 C99.67110672 22.23115387 99.6610611 23.25600891 99.65071106 24.31192017 C99.6198627 27.69361825 99.60283911 31.07523709 99.5859375 34.45703125 C99.56722721 36.80401797 99.5476539 39.15099796 99.5272522 41.49797058 C99.47591047 47.67105133 99.43629552 53.8441539 99.39910889 60.01733398 C99.35908215 66.3182516 99.30798371 72.61907831 99.2578125 78.91992188 C99.16102897 91.27988408 99.07663182 103.63989758 99 116 C94.12388552 115.23366515 91.37651227 113.21741416 87.75 110 C87.17427246 109.49654053 86.59854492 108.99308105 86.00537109 108.47436523 C84.32649338 106.99414768 82.6627117 105.4983193 81 104 C80.23429687 103.33097656 79.46859375 102.66195312 78.6796875 101.97265625 C71.03604546 94.86668484 65.18348407 86.09869754 59.0234375 77.72900391 C55.71057185 73.26095223 52.32114184 68.8520343 48.9375 64.4375 C43.65198197 57.5203066 38.41810353 50.56790842 33.25 43.5625 C32.67757568 42.78769287 32.10515137 42.01288574 31.51538086 41.21459961 C30.71112671 40.1203064 30.71112671 40.1203064 29.890625 39.00390625 C29.42688477 38.37299072 28.96314453 37.7420752 28.48535156 37.09204102 C26.59773123 34.4334252 24.80483879 31.71530132 23 29 C22.9303476 37.87554799 22.87711163 46.75100121 22.84456348 55.62676334 C22.82893834 59.74858855 22.80775811 63.87022612 22.77368164 67.99194336 C22.74097513 71.97308116 22.72312329 75.95403899 22.71536827 79.93530083 C22.70984495 81.45068632 22.6990593 82.96606249 22.68280983 84.48137093 C22.66088458 86.61157283 22.65803924 88.74104048 22.65942383 90.87133789 C22.65276199 92.0815712 22.64610016 93.2918045 22.63923645 94.53871155 C23.19052701 99.82798105 24.55139319 103.75352437 28.6875 107.3125 C29.450625 107.869375 30.21375 108.42625 31 109 C31 109.66 31 110.32 31 111 C20.77 111 10.54 111 0 111 C0 110.34 0 109.68 0 109 C0.763125 108.46375 1.52625 107.9275 2.3125 107.375 C6.0973895 104.03021393 7.61204933 99.89106858 8.27479172 94.95220947 C8.38635567 92.79849482 8.40578234 90.66431603 8.38818359 88.5078125 C8.39344055 87.7001947 8.39869751 86.8925769 8.40411377 86.06048584 C8.41721897 83.41512179 8.40860965 80.77036919 8.3984375 78.125 C8.40046096 76.27229701 8.40337467 74.41959481 8.40713501 72.56689453 C8.41154552 68.69360737 8.40516841 64.82052848 8.39111328 60.94726562 C8.37402219 55.9977663 8.38387021 51.04875512 8.40183067 46.09927368 C8.41270296 42.27641157 8.40920639 38.45366402 8.4014473 34.63079834 C8.39945481 32.80645692 8.40187092 30.9821049 8.40888596 29.15777588 C8.41655741 26.60230193 8.40481735 24.04760407 8.38818359 21.4921875 C8.39425629 20.74805603 8.40032898 20.00392456 8.40658569 19.23724365 C8.32885002 12.74761033 6.99834638 6.72272411 2.3125 2 C1.549375 1.34 0.78625 0.68 0 0 Z " fill="#006785" transform="translate(240,0)"/>
<path d="M0 0 C11.55 0 23.1 0 35 0 C35 0.66 35 1.32 35 2 C34.21625 2.598125 33.4325 3.19625 32.625 3.8125 C29.6610972 6.282419 29.0748717 7.34904289 28 11 C27.80736746 13.88303887 27.71636599 16.66853736 27.7253418 19.55053711 C27.72023087 20.3999437 27.71511993 21.24935028 27.70985413 22.12449646 C27.69598174 24.92551771 27.69691307 27.72629228 27.69921875 30.52734375 C27.69533064 32.47880647 27.69099573 34.43026834 27.68623352 36.38172913 C27.67877645 40.4696019 27.67905896 44.55738829 27.68432617 48.64526367 C27.69012125 53.87862886 27.67318632 59.11164018 27.6499815 64.34494686 C27.63523607 68.37445638 27.63437355 72.40388083 27.63749123 76.43341255 C27.63697846 78.36268375 27.63174912 80.29195977 27.62167931 82.22120476 C27.60931606 84.92105866 27.61610578 87.62022512 27.62768555 90.32006836 C27.62004181 91.11350647 27.61239807 91.90694458 27.60452271 92.72442627 C27.65056204 97.59114462 28.53332695 100.68628511 31 105 C31 105.66 31 106.32 31 107 C32.32 107.66 33.64 108.32 35 109 C35 109.66 35 110.32 35 111 C23.45 111 11.9 111 0 111 C0 110.34 0 109.68 0 109 C0.763125 108.484375 1.52625 107.96875 2.3125 107.4375 C6.99909243 103.18686966 7.84017824 98.2270578 8.27825928 92.12255859 C8.43514159 87.32166717 8.41770944 82.52157814 8.3984375 77.71875 C8.40046182 75.93713258 8.40337623 74.15551597 8.40713501 72.37390137 C8.41154151 68.65201883 8.40518152 64.93035327 8.39111328 61.20849609 C8.37402239 56.45753453 8.38387259 51.70708155 8.40183067 46.95613861 C8.41271393 43.28078436 8.40920141 39.60554904 8.4014473 35.93019104 C8.39945782 34.17924437 8.40186012 32.42828661 8.40888596 30.67735291 C8.44813705 18.14840255 8.29003445 9.94804134 0 0 Z " fill="#006785" transform="translate(365,0)"/>
<path d="M0 0 C11.22 0 22.44 0 34 0 C33.896875 3.135 33.79375 6.27 33.6875 9.5 C33.48364139 30.71937998 43.23940224 47.58855002 56 64 C52.29909479 67.9252025 48.45040344 70.94580156 44 74 C38.85347151 68.42582302 34.07456284 62.63166253 29.4206543 56.64794922 C25.83945003 52.04921171 22.18740691 47.51392289 18.5 43 C13.7119854 37.13552143 8.99394881 31.22175387 4.33789062 25.25195312 C2.27475845 22.53469728 2.27475845 22.53469728 0 20 C-0.08669432 18.5112814 -0.10703494 17.018555 -0.09765625 15.52734375 C-0.09515869 14.71773193 -0.09266113 13.90812012 -0.09008789 13.07397461 C-0.08098389 12.03893799 -0.07187988 11.00390137 -0.0625 9.9375 C-0.0315625 5.0184375 -0.0315625 5.0184375 0 0 Z " fill="#F15B24" transform="translate(0,0)"/>
<path d="M0 0 C2.35546875 1.23046875 2.35546875 1.23046875 4.8125 2.8125 C5.84109131 3.46154297 6.86968262 4.11058594 7.92944336 4.77929688 C9.91912503 6.46666596 10.71297419 7.40648234 11.33921814 9.96125793 C11.50722827 12.63526004 11.48697472 15.24791187 11.3984375 17.92578125 C11.38994781 18.89533249 11.38145813 19.86488373 11.37271118 20.86381531 C11.33919869 23.95202065 11.26392228 27.03758778 11.1875 30.125 C11.15739767 32.22196742 11.13002233 34.31897589 11.10546875 36.41601562 C11.03941407 41.54918925 10.93590587 46.6803978 10.8125 51.8125 C7.81194898 52.81268367 5.64167059 53.01035609 2.5 53.0625 C1.57574219 53.08828125 0.65148437 53.1140625 -0.30078125 53.140625 C-9.05200965 52.14589809 -15.92338319 44.75867107 -21.28125 38.28125 C-26.78504631 30.72519065 -29.97223378 24.05127303 -29.65625 14.55859375 C-28.67076349 8.78528529 -25.61576502 4.75420256 -21.1015625 1.14453125 C-13.84313232 -3.40153818 -7.69167566 -3.62706262 0 0 Z " fill="#F15C25" transform="translate(99.1875,25.1875)"/>
<path d="M0 0 C20.13 0 40.26 0 61 0 C61 4.62 61 9.24 61 14 C59.9275 13.835 58.855 13.67 57.75 13.5 C46.7244185 12.19485166 37.60865571 12.24912159 28.33203125 18.91796875 C19.63960155 26.17235985 15.94940165 34.01246341 14 45 C5.39401858 37.11857716 -0.5452147 24.0316801 -1.20703125 12.34375 C-1.31560636 2.63121272 -1.31560636 2.63121272 0 0 Z " fill="#F15B24" transform="translate(49,0)"/>
<path d="M0 0 C0.969375 0.845625 1.93875 1.69125 2.9375 2.5625 C4.28950173 3.71088701 5.6438423 4.85652386 7 6 C7.69867188 6.59941406 8.39734375 7.19882813 9.1171875 7.81640625 C17.42027925 14.65685372 24.63682485 17.44767037 35.43359375 17.43359375 C40.38566936 16.83153417 45.18723735 15.31257163 50 14 C50 22.58 50 31.16 50 40 C37.46 40 24.92 40 12 40 C14 38 16 36 18 34 C16.72125 33.855625 15.4425 33.71125 14.125 33.5625 C3.14301287 31.07049979 -4.30097641 19.42366583 -11 11 C-9.52202738 7.32943063 -7.52384523 5.58914217 -4.375 3.25 C-3.55773438 2.63640625 -2.74046875 2.0228125 -1.8984375 1.390625 C-0.95871094 0.70226562 -0.95871094 0.70226562 0 0 Z " fill="#F15D26" transform="translate(60,70)"/>
<path d="M0 0 C5.62553495 5.62553495 5.62553495 5.62553495 8.05078125 8.63671875 C8.5804248 9.29148193 9.11006836 9.94624512 9.65576172 10.62084961 C10.20248535 11.30284424 10.74920898 11.98483887 11.3125 12.6875 C11.88500488 13.39720947 12.45750977 14.10691895 13.04736328 14.83813477 C14.70111247 16.88980131 16.35094972 18.94455612 18 21 C18.78503906 21.97453125 19.57007812 22.9490625 20.37890625 23.953125 C24.64188131 29.25890217 28.83766579 34.61498011 33 40 C30.49047654 43.30081464 28.0335448 45.97419631 24.75 48.5 C21.43073751 51.08495629 18.14017828 53.69457096 14.89453125 56.37109375 C14.18006836 56.95890625 13.46560547 57.54671875 12.72949219 58.15234375 C11.29938466 59.33045847 9.87159554 60.51139388 8.44628906 61.6953125 C7.78467773 62.23800781 7.12306641 62.78070313 6.44140625 63.33984375 C5.85045166 63.82831787 5.25949707 64.31679199 4.65063477 64.82006836 C3 66 3 66 0 67 C0 44.89 0 22.78 0 0 Z " fill="#F15B23" transform="translate(0,42)"/>
<path d="M0 0 C1.51806641 1.49707031 1.51806641 1.49707031 3.1015625 3.578125 C3.67390625 4.32707031 4.24625 5.07601562 4.8359375 5.84765625 C5.42632812 6.64042969 6.01671875 7.43320313 6.625 8.25 C7.223125 9.02730469 7.82125 9.80460937 8.4375 10.60546875 C11.16887665 14.22052608 12.88106752 16.52427008 14 21 C0.14 21 -13.72 21 -28 21 C-22.37812289 15.37812289 -22.37812289 15.37812289 -19.66015625 13.28125 C-19.07169922 12.82363281 -18.48324219 12.36601563 -17.87695312 11.89453125 C-17.27818359 11.43433594 -16.67941406 10.97414063 -16.0625 10.5 C-14.86519553 9.57380781 -13.66857505 8.64673071 -12.47265625 7.71875 C-11.89273926 7.27144531 -11.31282227 6.82414062 -10.71533203 6.36328125 C-9.01153057 5.00916407 -7.38224294 3.59084824 -5.74609375 2.15625 C-3 0 -3 0 0 0 Z " fill="#F1602A" transform="translate(39,89)"/>
</svg>
