<?xml version="1.0" encoding="UTF-8"?>
<svg version="1.1" xmlns="http://www.w3.org/2000/svg" width="224" height="225">
<path d="M0 0 C73.92 0 147.84 0 224 0 C224 74.25 224 148.5 224 225 C150.08 225 76.16 225 0 225 C0 150.75 0 76.5 0 0 Z " fill="#01529C" transform="translate(0,0)"/>
<path d="M0 0 C1.25103516 -0.020625 2.50207031 -0.04125 3.79101562 -0.0625 C13.91598873 -0.10510904 22.06516774 0.85050671 29.57421875 8.05859375 C36.09441365 15.72699908 38.1001471 23.28588542 38.234375 33.21875 C36.88454499 43.75524147 29.5863446 51.95318773 22.2421875 58.99609375 C20.93738937 60.28459984 20.93738937 60.28459984 19.60623169 61.59913635 C16.85562374 64.30994193 14.08509694 66.99920663 11.3125 69.6875 C8.53731952 72.40511512 5.76641511 75.12700538 2.99734497 77.85084534 C1.281203 79.53605354 -0.43925231 81.21688369 -2.1645813 82.89268494 C-5.88161145 86.51720505 -9.46488788 90.06303123 -12.5625 94.25 C-11.14511511 97.50207092 -9.43723588 99.56361067 -6.875 102 C-4.28585218 104.46980834 -1.89562848 107.01392127 0.41796875 109.73828125 C3.58955262 113.39802987 6.95416926 116.80090721 10.4140625 120.18359375 C10.95104263 120.71032684 11.48802277 121.23705994 12.04127502 121.77975464 C14.2759755 123.96932777 16.5125077 126.15668797 18.76367188 128.3293457 C28.01076624 137.27043073 35.2077645 144.90713231 35.875 158.3125 C35.78439481 166.70480615 31.78221137 174.0612246 26.1875 180.1875 C17.93802621 187.70205407 8.91191989 189.46183455 -1.8125 189.625 C-2.72902344 189.66238281 -3.64554688 189.69976562 -4.58984375 189.73828125 C-11.21535324 189.82334485 -15.42490242 188.47346492 -20.5625 184.25 C-25.60445058 179.07536651 -26.81045326 173.70999599 -26.82319641 166.62197876 C-26.83028122 165.30426987 -26.83736603 163.98656097 -26.84466553 162.62892151 C-26.842372 161.18051113 -26.83986234 159.73210108 -26.8371582 158.28369141 C-26.84150834 156.74900566 -26.8466925 155.21432209 -26.85264587 153.67964172 C-26.86601533 149.52047705 -26.86661679 145.36140336 -26.86408257 141.20222139 C-26.86301137 137.72569277 -26.8679001 134.24918245 -26.872688 130.77265775 C-26.88377629 122.56815109 -26.88422454 114.36369021 -26.87817383 106.15917969 C-26.87213513 97.70561863 -26.88444395 89.25222405 -26.9057439 80.79869139 C-26.92337914 73.53140346 -26.92935819 66.26416844 -26.92610615 58.99685991 C-26.92429607 54.6605968 -26.92690193 50.32445244 -26.94082069 45.98820877 C-26.9534256 41.90876089 -26.95142989 37.82957185 -26.93840981 33.75012779 C-26.93605018 32.25702895 -26.93875663 30.76391174 -26.94703293 29.27083397 C-27.03450034 12.2582697 -27.03450034 12.2582697 -21.58984375 5.97265625 C-20.90019531 5.42480469 -20.21054687 4.87695312 -19.5 4.3125 C-18.80777344 3.74660156 -18.11554687 3.18070313 -17.40234375 2.59765625 C-12.32119435 -1.12420477 -6.06877283 0.0244832 0 0 Z " fill="#FCFCFD" transform="translate(51.5625,17.75)"/>
<path d="M0 0 C3.66651247 -0.08796382 7.33274918 -0.14071247 11 -0.1875 C12.54494141 -0.22520508 12.54494141 -0.22520508 14.12109375 -0.26367188 C23.18015069 -0.35022337 29.88283554 1.4473492 37.10546875 7.1171875 C43.25502756 13.22870781 46.14692652 20.40520609 46.4375 28.9375 C46.49808594 30.16339844 46.55867188 31.38929687 46.62109375 32.65234375 C45.50335647 46.33448629 34.29239727 55.40335486 25.0625 64.25 C22.38176387 66.85430813 19.70878076 69.46651965 17.03515625 72.078125 C16.08445503 73.00195984 16.08445503 73.00195984 15.11454773 73.94445801 C11.31972472 77.6471181 7.69701971 81.42565759 4.27856445 85.48339844 C1.72078598 88.51737207 -1.16842585 91.22621308 -4 94 C0.82134228 99.77223875 5.97665967 105.04750594 11.34570312 110.30664062 C11.97283203 110.92603516 12.59996094 111.54542969 13.24609375 112.18359375 C13.79966553 112.72556396 14.3532373 113.26753418 14.92358398 113.82592773 C16.7597074 115.74840616 18.49349948 117.71596126 20.22875977 119.72875977 C24.00129168 124.0642322 28.00757206 128.11799967 32.09375 132.15625 C32.84410522 132.9028186 33.59446045 133.64938721 34.36755371 134.4185791 C36.7425992 136.78152025 39.12086817 139.1411737 41.5 141.5 C44.63839217 144.61160646 47.77332745 147.72663755 50.90625 150.84375 C51.96749084 151.89254333 51.96749084 151.89254333 53.0501709 152.96252441 C57.01994605 156.91294748 60.78122583 160.97387255 64.43789673 165.215271 C66.40433409 167.46195843 68.48370213 169.56457068 70.62109375 171.6484375 C71.41064453 172.42574219 72.20019531 173.20304688 73.01367188 174.00390625 C74.65524664 175.60976585 76.29852846 177.21388198 77.94335938 178.81640625 C78.72388672 179.58597656 79.50441406 180.35554687 80.30859375 181.1484375 C81.01814209 181.84114746 81.72769043 182.53385742 82.45874023 183.24755859 C84 185 84 185 84 187 C80.21027324 189.48870794 76.38664459 189.26879697 72.01855469 189.22705078 C71.2181778 189.22734283 70.4178009 189.22763489 69.59317017 189.22793579 C66.95262744 189.22654455 64.31236832 189.21099308 61.671875 189.1953125 C59.83913324 189.19158164 58.00638949 189.18873501 56.17364502 189.18673706 C51.35345946 189.17910637 46.53339471 189.15946269 41.71325684 189.1373291 C36.79322952 189.11685855 31.87318265 189.10773275 26.953125 189.09765625 C17.3020303 189.0762163 7.6510252 189.04208712 -2 189 C-1.4099854 185.93707665 -0.76235154 183.13373372 0.41015625 180.2421875 C5.94351902 165.82951445 7.84435036 150.7140115 2 136 C1.70222656 135.11054688 1.40445313 134.22109375 1.09765625 133.3046875 C-2.78209198 123.71635349 -10.23600828 117.31385786 -17.58984375 110.296875 C-22.87130447 105.2385746 -27.65797948 99.88467664 -32 94 C-27.03920248 88.43919241 -22.0343527 82.97067571 -16.6953125 77.76953125 C-15.95079834 77.0417749 -15.20628418 76.31401855 -14.43920898 75.56420898 C-12.97356472 74.13924616 -11.49949375 72.722883 -10.01586914 71.31665039 C-0.39608478 61.94763197 6.38232801 49.6145202 7 36 C7.0515625 35.20464844 7.103125 34.40929688 7.15625 33.58984375 C7.54788644 22.50979614 5.49014351 11.65507997 0 2 C0 1.34 0 0.68 0 0 Z " fill="#FCFDFD" transform="translate(105,18)"/>
<path d="M0 0 C19.01751613 -0.91430366 19.01751613 -0.91430366 24.58984375 3.56640625 C29.51907166 8.57756038 31.12627488 11.88975976 31.12025452 18.90348816 C31.12231651 20.75237389 31.12231651 20.75237389 31.12442017 22.63861084 C31.12088103 24.00671411 31.11724623 25.37481713 31.11352539 26.74291992 C31.11324336 28.18176776 31.11340157 29.62061575 31.1139679 31.0594635 C31.11425523 34.96826467 31.10836873 38.87703526 31.10139394 42.78582931 C31.09514986 46.86977595 31.09455576 50.95372327 31.09336853 55.03767395 C31.09025833 62.77242807 31.08204912 70.50716809 31.07201904 78.241916 C31.06084826 87.04713654 31.05534502 95.85235774 31.05032361 104.65758359 C31.03986627 122.7717304 31.02227283 140.88586407 31 159 C23.61249254 152.73702457 23.61249254 152.73702457 20.47070312 149.60009766 C19.87318237 149.00572906 19.27566162 148.41136047 18.66003418 147.79898071 C17.73003601 146.8659462 17.73003601 146.8659462 16.78125 145.9140625 C16.11967896 145.25344818 15.45810791 144.59283386 14.77648926 143.91220093 C13.38703655 142.52342439 11.99882844 141.13340162 10.61181641 139.7421875 C8.50924719 137.63427071 6.40140396 135.531735 4.29296875 133.4296875 C2.9345752 132.0706329 1.57649202 130.711268 0.21875 129.3515625 C-0.40124878 128.73358795 -1.02124756 128.1156134 -1.66003418 127.47891235 C-5.39719807 123.72203343 -8.9281221 119.83904369 -12.39370728 115.8309021 C-14.45439525 113.48206625 -16.62308859 111.26396719 -18.83984375 109.0625 C-19.67451172 108.23105469 -20.50917969 107.39960937 -21.36914062 106.54296875 C-22.21669922 105.70378906 -23.06425781 104.86460938 -23.9375 104 C-24.81212891 103.12988281 -25.68675781 102.25976562 -26.58789062 101.36328125 C-28.72297449 99.23986451 -30.86037205 97.11883622 -33 95 C-28.89891369 90.09991971 -24.62544599 85.53131965 -20.0625 81.0625 C-15.69517268 76.74023784 -11.39523945 72.42114005 -7.4453125 67.70703125 C-6.47919987 66.56597391 -5.47253331 65.45810014 -4.4296875 64.38671875 C4.65082117 54.82708776 7.53039231 40.87472938 7.25390625 28.02734375 C6.47507088 18.74122971 4.62910999 10.1408486 0 2 C0 1.34 0 0.68 0 0 Z " fill="#FEFEFE" transform="translate(167,18)"/>
<path d="M0 0 C0.33 0 0.66 0 1 0 C1 9.9 1 19.8 1 30 C-8.57 30 -18.14 30 -28 30 C-25.76418528 28.88209264 -23.51606627 27.78567674 -21.23046875 26.7734375 C-12.0788787 22.56770035 -6.5232381 18.15000677 -2.625 8.75 C-1.56781664 5.86342978 -0.70015354 2.99281319 0 0 Z " fill="#F9FBFC" transform="translate(223,195)"/>
<path d="M0 0 C9.9 0 19.8 0 30 0 C30 9.9 30 19.8 30 30 C29.67 30 29.34 30 29 30 C28.85304687 29.38253906 28.70609375 28.76507812 28.5546875 28.12890625 C25.84848874 17.91067302 21.14644848 10.51268503 12 5 C8.15696595 2.97526099 4.30713384 1.65259604 0 1 C0 0.67 0 0.34 0 0 Z " fill="#F9FAFC" transform="translate(194,0)"/>
<path d="M0 0 C0.33 0 0.66 0 1 0 C1.14695313 0.68964844 1.29390625 1.37929687 1.4453125 2.08984375 C3.75507686 11.76695993 7.76312703 19.23418892 16 25 C18.6174532 26.45075894 21.28594393 27.74186469 24 29 C25.32 29.66 26.64 30.32 28 31 C18.76 31 9.52 31 0 31 C0 20.77 0 10.54 0 0 Z " fill="#F9FAFC" transform="translate(0,194)"/>
<path d="M0 0 C9.57 0 19.14 0 29 0 C29 0.33 29 0.66 29 1 C28.18208984 1.22042969 28.18208984 1.22042969 27.34765625 1.4453125 C17.69438525 4.31654182 10.09385478 9.14381479 5 18 C3.49602811 21.27968948 2.18670352 24.59346284 1 28 C0.67 28 0.34 28 0 28 C0 18.76 0 9.52 0 0 Z " fill="#FAFBFC" transform="translate(0,0)"/>
</svg>
