<?xml version="1.0" encoding="UTF-8"?>
<svg version="1.1" xmlns="http://www.w3.org/2000/svg" width="397" height="116">
<path d="M0 0 C131.01 0 262.02 0 397 0 C397 38.28 397 76.56 397 116 C265.99 116 134.98 116 0 116 C0 77.72 0 39.44 0 0 Z " fill="#FDFEFE" transform="translate(0,0)"/>
<path d="M0 0 C9.77625 -0.061875 19.5525 -0.12375 29.625 -0.1875 C34.21075928 -0.22846802 34.21075928 -0.22846802 38.88916016 -0.27026367 C41.35579027 -0.27903862 43.82242479 -0.28668016 46.2890625 -0.29296875 C48.15727661 -0.3159906 48.15727661 -0.3159906 50.06323242 -0.33947754 C61.50463125 -0.34283148 72.92920777 1.14868231 83.1875 6.5 C84.18620117 7.01602783 84.18620117 7.01602783 85.20507812 7.54248047 C98.29016735 14.68754486 107.42280194 27.03824223 111.69140625 41.22265625 C113.17063804 46.99471526 113.50096994 52.49781351 113.4375 58.4375 C113.42920166 59.44594971 113.42090332 60.45439941 113.41235352 61.4934082 C113.24327996 68.94167 112.37416732 75.27174969 109 82 C108.525625 82.98742187 108.05125 83.97484375 107.5625 84.9921875 C100.26208648 98.78575728 89.06493116 108.5757533 74.25 113.3125 C68.0017789 115.1361803 62.14352948 116.12682353 55.62744141 116.11352539 C53.74037476 116.11334412 53.74037476 116.11334412 51.81518555 116.11315918 C50.50718994 116.10804321 49.19919434 116.10292725 47.8515625 116.09765625 C46.63879639 116.09664917 45.42603027 116.09564209 44.17651367 116.09460449 C39.65933279 116.08938444 35.14216541 116.07542318 30.625 116.0625 C20.51875 116.041875 10.4125 116.02125 0 116 C0 77.72 0 39.44 0 0 Z " fill="#108DE8" transform="translate(0,0)"/>
<path d="M0 0 C32.77777778 0 32.77777778 0 42.5 9.375 C43.3666846 10.5596399 44.20172492 11.76822454 45 13 C45.40992188 13.55945312 45.81984375 14.11890625 46.2421875 14.6953125 C50.69799939 21.79388178 50.07646141 30.98772656 48.375 38.91015625 C46.2117926 45.15834904 42.44753821 50.23115937 37 54 C27 58 27 58 0 58 C0 38.86 0 19.72 0 0 Z " fill="#108DE7" transform="translate(135,29)"/>
<path d="M0 0 C3.375 2.0625 3.375 2.0625 4.375 3.0625 C4.46355161 5.7287603 4.49024673 8.36897114 4.47265625 11.03515625 C4.4712413 11.83279892 4.46982635 12.63044159 4.46836853 13.45225525 C4.46275316 16.00987435 4.45019812 18.56740718 4.4375 21.125 C4.43248698 22.85481645 4.42792373 24.58463426 4.42382812 26.31445312 C4.41277875 30.56383553 4.39550386 34.81315312 4.375 39.0625 C3.48856812 38.74635742 3.48856812 38.74635742 2.58422852 38.42382812 C-11.00960818 33.70808027 -21.42849893 37.45212064 -34.44921875 42.0625 C-40.73998189 44.1695511 -47.02008441 45.13516532 -53.625 44.0625 C-56.265 42.7425 -58.905 41.4225 -61.625 40.0625 C-61.625 28.1825 -61.625 16.3025 -61.625 4.0625 C-55.625 6.0625 -55.625 6.0625 -53.625 7.0625 C-44.06789862 8.56053772 -35.66630374 5.06518441 -26.85620117 1.87084961 C-9.21923331 -4.51890863 -9.21923331 -4.51890863 0 0 Z " fill="#FCFDFE" transform="translate(85.625,36.9375)"/>
<path d="M0 0 C5.68443133 4.93434974 8.51507977 11.38845093 9.04736328 18.86328125 C9.23199115 24.07434236 9.09759135 29.27222475 8.94677734 34.48242188 C8.91661766 36.30659624 8.88925253 38.13081905 8.86474609 39.95507812 C8.79927619 44.38207619 8.69609533 48.80670149 8.57177734 53.23242188 C4.28177734 53.23242188 -0.00822266 53.23242188 -4.42822266 53.23242188 C-4.42822266 48.94242188 -4.42822266 44.65242188 -4.42822266 40.23242188 C-12.34822266 40.23242188 -20.26822266 40.23242188 -28.42822266 40.23242188 C-28.42822266 44.19242188 -28.42822266 48.15242188 -28.42822266 52.23242188 C-32.38822266 52.23242188 -36.34822266 52.23242188 -40.42822266 52.23242188 C-40.52760422 46.68234393 -40.59993226 41.1327917 -40.64794922 35.58203125 C-40.66798032 33.69652271 -40.69521338 31.81107564 -40.72998047 29.92578125 C-40.77887538 27.20492325 -40.80127648 24.48489131 -40.81884766 21.76367188 C-40.8394928 20.93001099 -40.86013794 20.0963501 -40.88140869 19.23742676 C-40.88405932 12.2168045 -38.89321769 7.10293365 -34.31494141 1.77148438 C-23.49941031 -7.64167768 -11.69631748 -8.51411005 0 0 Z " fill="#168FE8" transform="translate(388.42822265625,34.767578125)"/>
<path d="M0 0 C7.65543254 0.51036217 13.0363888 2.99538951 18.92578125 7.84765625 C26.26025002 17.5065391 25.22631108 28.35234982 25 39.875 C24.97990223 41.66013619 24.96165726 43.44529425 24.9453125 45.23046875 C24.90158086 49.5708596 24.83273589 53.9101846 24.75 58.25 C20.79 58.25 16.83 58.25 12.75 58.25 C12.75 54.29 12.75 50.33 12.75 46.25 C4.5 46.25 -3.75 46.25 -12.25 46.25 C-12.25 50.21 -12.25 54.17 -12.25 58.25 C-16.21 58.25 -20.17 58.25 -24.25 58.25 C-24.29982621 53.43027209 -24.33591929 48.6106976 -24.35986328 43.79077148 C-24.36985617 42.15467717 -24.38345507 40.51860041 -24.40087891 38.88256836 C-24.63684907 16.13920876 -24.63684907 16.13920876 -18.02734375 8.04296875 C-12.71471445 2.68363502 -7.40398946 0.56953765 0 0 Z " fill="#0F8CE7" transform="translate(230.25,28.75)"/>
<path d="M0 0 C6.85397497 3.99375849 10.71569234 8.62945432 13.03125 16.18359375 C13.84538504 22.84835849 13.50373192 29.61229395 13.34375 36.30859375 C13.3186296 38.14189659 13.29582306 39.97523267 13.27539062 41.80859375 C13.22070553 46.26775802 13.13464262 50.72530378 13.03125 55.18359375 C9.07125 55.18359375 5.11125 55.18359375 1.03125 55.18359375 C1.02714111 54.0941748 1.02303223 53.00475586 1.01879883 51.88232422 C0.99695193 47.82276737 0.9426057 43.76417213 0.87866211 39.70507812 C0.85553032 37.95159147 0.84109771 36.19796683 0.83569336 34.44433594 C0.82636801 31.91644791 0.78530365 29.39071558 0.73828125 26.86328125 C0.7422139 26.08491913 0.74614655 25.30655701 0.75019836 24.50460815 C0.5973209 18.74291869 -0.87583377 16.24189347 -4.96875 12.18359375 C-7.79050159 9.94565284 -9.19204655 10.18713814 -12.90625 10.24609375 C-17.2030795 10.90344453 -19.23790775 12.79072913 -21.96875 16.18359375 C-23.57826543 19.4026246 -23.21109748 22.93198207 -23.28515625 26.47265625 C-23.30593735 27.29108002 -23.32671844 28.10950378 -23.34812927 28.95272827 C-23.41359812 31.57126341 -23.47249726 34.18990014 -23.53125 36.80859375 C-23.57443776 38.58204182 -23.61805214 40.35547956 -23.66210938 42.12890625 C-23.76927676 46.48036421 -23.87055169 50.83192452 -23.96875 55.18359375 C-27.92875 55.18359375 -31.88875 55.18359375 -35.96875 55.18359375 C-36.06843046 49.95497044 -36.14059747 44.72691331 -36.18847656 39.49755859 C-36.20845839 37.72272086 -36.23565355 35.94794781 -36.27050781 34.17333984 C-36.67278382 13.14850261 -36.67278382 13.14850261 -30.07421875 4.78125 C-20.57962892 -2.81828931 -11.27530638 -5.73690765 0 0 Z " fill="#0E8CE7" transform="translate(312.96875,31.81640625)"/>
<path d="M0 0 C15.55434783 0 15.55434783 0 21.59765625 5.4375 C25.30703901 9.73583768 25.64011461 13.86713745 25.3515625 19.41796875 C24.66352966 24.47118775 22.7539569 27.51611496 19 30.8125 C12.34579626 35.66452356 9.93619795 34 0 34 C0 22.78 0 11.56 0 0 Z " fill="#F7FAFD" transform="translate(147,41)"/>
<path d="M0 0 C16.5 0 33 0 50 0 C46.52976167 1.73511917 43.64615971 2.69161446 39.9375 3.6875 C25.1257602 8.13602028 14.54253622 17.84071383 7.22265625 31.2578125 C4.09828226 37.72045405 1.93312124 43.87288433 1 51 C0.67 51 0.34 51 0 51 C0 34.17 0 17.34 0 0 Z " fill="#FBFCFE" transform="translate(0,0)"/>
<path d="M0 0 C0.33 0 0.66 0 1 0 C1.08636719 0.58265625 1.17273438 1.1653125 1.26171875 1.765625 C3.12765303 12.65309472 7.37921689 22.1779335 14 31 C14.89138672 32.22203125 14.89138672 32.22203125 15.80078125 33.46875 C24.55347929 43.54290334 37.23253846 48.52887841 50 51 C50 51.33 50 51.66 50 52 C33.5 52 17 52 0 52 C0 34.84 0 17.68 0 0 Z " fill="#FBFCFE" transform="translate(0,64)"/>
<path d="M0 0 C3.84228406 2.42230952 4.92907631 3.85815261 7 8 C7 11.96 7 15.92 7 20 C-1.25 20 -9.5 20 -18 20 C-18 7.375 -18 7.375 -13 1.75 C-9.02261869 -1.73020865 -4.86048697 -1.23410802 0 0 Z " fill="#FBFCFE" transform="translate(236,42)"/>
<path d="M0 0 C3.12578143 1.6720747 5.39281175 3.7856235 7 7 C7.1393329 11.33603979 7.04254111 15.66080671 7 20 C-0.92 20 -8.84 20 -17 20 C-17.66964286 6.875 -17.66964286 6.875 -14.625 3.25 C-10.05277851 -0.66904699 -5.88050669 -0.82849405 0 0 Z " fill="#FDFDFE" transform="translate(377,42)"/>
</svg>
