<?xml version="1.0" encoding="UTF-8"?>
<svg version="1.1" xmlns="http://www.w3.org/2000/svg" width="368" height="136">
<path d="M0 0 C121.44 0 242.88 0 368 0 C368 44.88 368 89.76 368 136 C246.56 136 125.12 136 0 136 C0 91.12 0 46.24 0 0 Z " fill="#FBFBFB" transform="translate(0,0)"/>
<path d="M0 0 C26.07 0 52.14 0 79 0 C79 6.27 79 12.54 79 19 C62.83 19 46.66 19 30 19 C30 22.63 30 26.26 30 30 C46.17 30 62.34 30 79 30 C79 45.84 79 61.68 79 78 C53.26 78 27.52 78 1 78 C1 72.06 1 66.12 1 60 C17.17 60 33.34 60 50 60 C50 56.37 50 52.74 50 49 C33.5 49 17 49 0 49 C0 32.83 0 16.66 0 0 Z " fill="#030504" transform="translate(248,22)"/>
<path d="M0 0 C25.74 0 51.48 0 78 0 C78 15.84 78 31.68 78 48 C68.1 48 58.2 48 48 48 C48 48.99 48 49.98 48 51 C48.89187012 51.40182495 48.89187012 51.40182495 49.80175781 51.81176758 C52.02239757 53.01210673 53.4243607 54.20702998 55.171875 56.01171875 C55.75026123 56.60162598 56.32864746 57.1915332 56.92456055 57.79931641 C57.52695557 58.42241699 58.12935059 59.04551758 58.75 59.6875 C63.1626201 64.18769707 67.5704144 68.56774574 72.44921875 72.5703125 C74.23639599 74.21793686 75.56381381 76.04426777 77 78 C67.3294127 79.85505309 54.98136866 82.12371657 45.98937988 76.81237793 C37.25095037 70.4318433 30.11468507 61.88036693 23.24536133 53.59204102 C21.26720324 50.97392092 21.26720324 50.97392092 19 50 C19 59.24 19 68.48 19 78 C12.73 78 6.46 78 0 78 C0 62.16 0 46.32 0 30 C19.47 30 38.94 30 59 30 C59 26.37 59 22.74 59 19 C39.53 19 20.06 19 0 19 C0 12.73 0 6.46 0 0 Z " fill="#020403" transform="translate(130,22)"/>
<path d="M0 0 C6.27 0 12.54 0 19 0 C19 19.8 19 39.6 19 60 C28.57 60 38.14 60 48 60 C48 65.94 48 71.88 48 78 C41.18237576 78.02464247 34.3647772 78.04283244 27.54711914 78.05493164 C25.22582549 78.05997333 22.90453503 78.06680651 20.58325195 78.07543945 C17.25471205 78.08751225 13.92621398 78.09322979 10.59765625 78.09765625 C9.03048607 78.10539818 9.03048607 78.10539818 7.43165588 78.11329651 C6.47073532 78.11337204 5.50981476 78.11344757 4.51977539 78.11352539 C3.66928116 78.115746 2.81878693 78.11796661 1.94252014 78.12025452 C0 78 0 78 -1 77 C-1.10025695 74.63238425 -1.13618935 72.29392927 -1.12939453 69.92578125 C-1.13114685 69.18597015 -1.13289917 68.44615906 -1.13470459 67.68392944 C-1.1391231 65.22676277 -1.13618513 62.76966747 -1.1328125 60.3125 C-1.13348554 58.61238593 -1.13445557 56.91227195 -1.13571167 55.2121582 C-1.13718864 51.64435919 -1.13503411 48.07658517 -1.13037109 44.50878906 C-1.1246738 39.92511506 -1.12795281 35.34149961 -1.13394356 30.75782776 C-1.13754919 27.24580439 -1.13641057 23.73379502 -1.13381577 20.22177124 C-1.1331465 18.53119907 -1.13397489 16.84062564 -1.13629532 15.15005493 C-1.13882189 12.79140843 -1.13498121 10.43285805 -1.12939453 8.07421875 C-1.13141876 7.36872894 -1.13344299 6.66323914 -1.13552856 5.93637085 C-1.11426271 1.11426271 -1.11426271 1.11426271 0 0 Z " fill="#050606" transform="translate(41,22)"/>
<path d="M0 0 C6.81762424 -0.02464247 13.6352228 -0.04283244 20.45288086 -0.05493164 C22.77417451 -0.05997333 25.09546497 -0.06680651 27.41674805 -0.07543945 C30.74528795 -0.08751225 34.07378602 -0.09322979 37.40234375 -0.09765625 C38.44712387 -0.10281754 39.49190399 -0.10797882 40.56834412 -0.11329651 C41.52926468 -0.11337204 42.49018524 -0.11344757 43.48022461 -0.11352539 C44.33071884 -0.115746 45.18121307 -0.11796661 46.05747986 -0.12025452 C48 0 48 0 49 1 C49.09311889 2.50418739 49.11746028 4.01271356 49.11352539 5.51977539 C49.11344986 6.48069595 49.11337433 7.44161652 49.11329651 8.43165588 C49.10813522 9.476436 49.10297394 10.52121613 49.09765625 11.59765625 C49.0962413 12.66165146 49.09482635 13.72564667 49.09336853 14.82188416 C49.08775064 18.23545083 49.07519511 21.648953 49.0625 25.0625 C49.05748731 27.37044176 49.052924 29.67838455 49.04882812 31.98632812 C49.03777539 37.65757711 49.02049877 43.3287776 49 49 C42.4 49 35.8 49 29 49 C29 39.1 29 29.2 29 19 C19.43 19 9.86 19 0 19 C0 12.73 0 6.46 0 0 Z " fill="#050706" transform="translate(70,22)"/>
<path d="M0 0 C6.27 0 12.54 0 19 0 C19 25.74 19 51.48 19 78 C12.73 78 6.46 78 0 78 C0 52.26 0 26.52 0 0 Z " fill="#010302" transform="translate(219,22)"/>
<path d="M0 0 C6.6 0 13.2 0 20 0 C20 14.52 20 29.04 20 44 C13.4 44 6.8 44 0 44 C0 29.48 0 14.96 0 0 Z " fill="#0A0B0A" transform="translate(99,81)"/>
<path d="M0 0 C6.27 0 12.54 0 19 0 C19 6.27 19 12.54 19 19 C12.73 19 6.46 19 0 19 C0 12.73 0 6.46 0 0 Z " fill="#0B0B0B" transform="translate(70,52)"/>
<path d="M0 0 C1.60279192 0.00015914 3.20558896 0.00585476 4.80834961 0.01586914 C5.65038437 0.01728409 6.49241913 0.01869904 7.35997009 0.02015686 C10.06024671 0.02577276 12.76044163 0.03832791 15.46069336 0.05102539 C17.28686404 0.05603834 19.11303602 0.06060161 20.93920898 0.06469727 C25.42556878 0.07574735 29.9118672 0.0930226 34.39819336 0.11352539 C34.39819336 1.43352539 34.39819336 2.75352539 34.39819336 4.11352539 C18.06319336 4.60852539 18.06319336 4.60852539 1.39819336 5.11352539 C1.06819336 16.33352539 0.73819336 27.55352539 0.39819336 39.11352539 C-1.25180664 39.11352539 -2.90180664 39.11352539 -4.60180664 39.11352539 C-4.62645514 33.72005551 -4.64464195 28.32661814 -4.65673828 22.93310547 C-4.66177896 21.09683664 -4.66861141 19.26057185 -4.67724609 17.42431641 C-4.68932336 14.79076138 -4.69503745 12.15725923 -4.69946289 9.52368164 C-4.70462418 8.69763931 -4.70978546 7.87159698 -4.71510315 7.02052307 C-4.71529869 5.05116172 -4.66384816 3.08190926 -4.60180664 1.11352539 C-3.60180664 0.11352539 -3.60180664 0.11352539 0 0 Z " fill="#0D0E0D" transform="translate(32.601806640625,10.886474609375)"/>
<path d="M0 0 C1.32 0 2.64 0 4 0 C4.02464928 5.25105442 4.04283568 10.50207545 4.05493164 15.75317383 C4.05997218 17.54094021 4.06680454 19.32870245 4.07543945 21.11645508 C4.0875173 23.68051168 4.09323094 26.24451397 4.09765625 28.80859375 C4.10281754 29.6127623 4.10797882 30.41693085 4.11329651 31.24546814 C4.11349215 33.16401715 4.06201983 35.08245368 4 37 C3 38 3 38 -0.60180664 38.11352539 C-2.20459856 38.11336625 -3.8073956 38.10767063 -5.41015625 38.09765625 C-6.25219101 38.0962413 -7.09422577 38.09482635 -7.96177673 38.09336853 C-10.66205335 38.08775263 -13.36224828 38.07519748 -16.0625 38.0625 C-17.88867068 38.05748705 -19.71484266 38.05292379 -21.54101562 38.04882812 C-26.02737542 38.03777804 -30.51367384 38.02050279 -35 38 C-35 36.35 -35 34.7 -35 33 C-23.78 32.67 -12.56 32.34 -1 32 C-0.67 21.44 -0.34 10.88 0 0 Z " fill="#0A0B0A" transform="translate(336,76)"/>
<path d="M0 0 C3.63 0 7.26 0 11 0 C11 3.63 11 7.26 11 11 C7.37 11 3.74 11 0 11 C0 7.37 0 3.74 0 0 Z " fill="#E0E0E0" transform="translate(74,56)"/>
</svg>
